<svg width="200" height="200" viewBox="0 0 200 200" fill="none" xmlns="http://www.w3.org/2000/svg">
<rect width="200" height="200" fill="#5D5A88"/>
<path d="M65.3203 80.4414L77.5273 74.9727V46.5547C77.5273 45.5781 78.862 44.1784 81.5312 42.3555C84.2656 40.5326 87.651 38.612 91.6875 36.5938C95.7891 34.5104 99.9883 32.5247 104.285 30.6367C108.647 28.7487 112.521 27.2188 115.906 26.0469C119.292 24.8099 121.57 24.1914 122.742 24.1914C123.784 24.1914 124.63 24.7122 125.281 25.7539C125.997 26.7305 126.551 27.6094 126.941 28.3906L128.699 32.1992L131.531 37.1797C133.289 40.3698 135.47 41.9648 138.074 41.9648V45.9688C137.033 46.4245 135.796 47.043 134.363 47.8242C132.931 48.5404 131.303 49.3867 129.48 50.3633C121.147 54.9206 116.622 57.1992 115.906 57.1992C113.953 57.1992 112.13 54.2695 110.438 48.4102C108.81 42.5508 107.052 39.6211 105.164 39.6211C102.755 39.6211 101.551 41.6068 101.551 45.5781V74.9727H121.961V79.7578L111.902 84.8359H101.551V148.41C101.551 156.483 104.285 161.073 109.754 162.18V166.574L89.5391 178C86.6094 176.828 83.875 174.875 81.3359 172.141C78.7969 169.406 77.5273 166.835 77.5273 164.426V84.8359H65.3203V80.4414Z" fill="white"/>
</svg>
